<?xml version="1.0" encoding="utf-8"?>
<!-- Generator: Adobe Illustrator 15.1.0, SVG Export Plug-In . SVG Version: 6.00 Build 0)  -->
<!DOCTYPE svg PUBLIC "-//W3C//DTD SVG 1.1//EN" "http://www.w3.org/Graphics/SVG/1.1/DTD/svg11.dtd">
<svg version="1.1" id="Layer_1" xmlns="http://www.w3.org/2000/svg" xmlns:xlink="http://www.w3.org/1999/xlink" x="0px" y="0px"
	 width="1280px" height="720px" viewBox="0 0 1280 720" enable-background="new 0 0 1280 720" xml:space="preserve">
<rect x="-0.5" y="0.5" fill="none" stroke="#000000" stroke-miterlimit="10" width="1280" height="720"/>
<rect x="1279.5" y="0.5" fill="none" stroke="#000000" stroke-miterlimit="10" width="1280" height="720"/>
<rect x="2559.5" y="720.5" fill="none" stroke="#000000" stroke-miterlimit="10" width="1280" height="720"/>
<rect x="2559.5" y="-719.5" fill="none" stroke="#000000" stroke-miterlimit="10" width="1280" height="720"/>
<line fill="none" stroke="#000000" stroke-width="3" stroke-miterlimit="10" x1="259" y1="391.358" x2="2013" y2="391.358"/>
<line fill="none" stroke="#000000" stroke-width="3" stroke-miterlimit="10" x1="2110.063" y1="195.336" x2="2444.659" y2="195.336"/>
<line fill="none" stroke="#000000" stroke-width="3" stroke-miterlimit="10" x1="1551.692" y1="539.765" x2="2151.062" y2="539.765"/>
<line fill="none" stroke="#000000" stroke-width="3" stroke-miterlimit="10" x1="3452" y1="1064.5" x2="2415.471" y2="1064.5"/>
<line fill="none" stroke="#000000" stroke-width="3" stroke-miterlimit="10" x1="2714.986" y1="1064.5" x2="2885.979" y2="773.568"/>
<line fill="none" stroke="#000000" stroke-width="3" stroke-miterlimit="10" x1="2886" y1="774.5" x2="3046" y2="774.5"/>
<line fill="none" stroke="#000000" stroke-width="3" stroke-miterlimit="10" x1="2816.98" y1="1063.5" x2="2966" y2="1312.042"/>
<line fill="none" stroke="#000000" stroke-width="3" stroke-miterlimit="10" x1="2966" y1="1313.5" x2="3114" y2="1313.5"/>
<line fill="none" stroke="#000000" stroke-width="3" stroke-miterlimit="10" x1="2980" y1="1064.5" x2="3043.5" y2="1178.5"/>
<line fill="none" stroke="#000000" stroke-width="3" stroke-miterlimit="10" x1="3043" y1="1178.5" x2="3199" y2="1178.5"/>
<line fill="none" stroke="#000000" stroke-width="3" stroke-miterlimit="10" x1="3121" y1="906.5" x2="3277" y2="906.5"/>
<line fill="none" stroke="#000000" stroke-width="3" stroke-miterlimit="10" x1="3031" y1="1064.5" x2="3121" y2="905.5"/>
<line fill="none" stroke="#000000" stroke-width="3" stroke-miterlimit="10" x1="3365" y1="1063.5" x2="3430" y2="1178.5"/>
<line fill="none" stroke="#000000" stroke-width="3" stroke-miterlimit="10" x1="3430" y1="1179.5" x2="3584" y2="1179.5"/>
<line fill="none" stroke="#000000" stroke-width="3" stroke-miterlimit="10" x1="2640.08" y1="-180.918" x2="3603.891" y2="-180.918"/>
<line fill="none" stroke="#000000" stroke-width="3" stroke-miterlimit="10" x1="3055.642" y1="-620.174" x2="3525.642" y2="-620.174"/>
<line fill="none" stroke="#000000" stroke-width="3" stroke-miterlimit="10" x1="3006.771" y1="-523.75" x2="3256.229" y2="-523.75"/>
<g>
	<circle id="Cena.0" opacity="0.5" fill="#FF0000" enable-background="new    " cx="0" cy="0" r="25.607"/>
</g>
<g>
	<circle id="Cena.1" opacity="0.5" fill="#FF0000" enable-background="new    " cx="1278.5" cy="0.5" r="25.607"/>
</g>
<g>
	<circle id="Cena.2" opacity="0.53" fill="#FF0000" enable-background="new    " cx="2559.5" cy="-719.5" r="25.607"/>
</g>
<g>
	<circle id="Cena.3" opacity="0.53" fill="#FF0000" enable-background="new    " cx="2559.5" cy="720" r="25.607"/>
	<rect id="bt.Projetos" x="2619.5" y="1052.5" fill="none" stroke="#000000" stroke-miterlimit="10" width="97" height="23"/>
	<rect id="bt.On_Stage" x="2985.5" y="762.5" fill="none" stroke="#000000" stroke-miterlimit="10" width="82" height="23"/>
	<rect id="bt.Video_Mapping" x="3170.5" y="893.5" fill="none" stroke="#000000" stroke-miterlimit="10" width="129" height="23"/>
	<rect id="bt.Filmes" x="3379.5" y="1050.5" fill="none" stroke="#000000" stroke-miterlimit="10" width="72" height="23"/>
	<rect id="bt.Instalação" x="3501.5" y="1164.5" fill="none" stroke="#000000" stroke-miterlimit="10" width="103" height="23"/>
	
		<rect id="bt.Design_Gráfico" x="3083.5" y="1166.5" fill="none" stroke="#000000" stroke-miterlimit="10" width="137" height="23"/>
	<rect id="bt.Motion_Design" x="2998.5" y="1301.5" fill="none" stroke="#000000" stroke-miterlimit="10" width="137" height="23"/>
</g>
<line fill="none" stroke="#000000" stroke-width="3" stroke-miterlimit="10" x1="2013.661" y1="391.194" x2="2112.306" y2="195.336"/>
<line fill="none" stroke="#000000" stroke-width="3" stroke-miterlimit="10" x1="2444.659" y1="195.336" x2="2640.08" y2="-180.918"/>
<line fill="none" stroke="#000000" stroke-width="3" stroke-miterlimit="10" x1="2827.284" y1="-180.918" x2="3054.656" y2="-620.174"/>
<line fill="none" stroke="#000000" stroke-width="3" stroke-miterlimit="10" x1="1550.638" y1="539.765" x2="1475.699" y2="391.358"/>
<line fill="none" stroke="#000000" stroke-width="3" stroke-miterlimit="10" x1="2415.471" y1="1064.5" x2="2152.157" y2="539.443"/>
</svg>
