<?xml version="1.0" encoding="utf-8"?>
<!-- Generator: Adobe Illustrator 15.1.0, SVG Export Plug-In . SVG Version: 6.00 Build 0)  -->
<!DOCTYPE svg PUBLIC "-//W3C//DTD SVG 1.1//EN" "http://www.w3.org/Graphics/SVG/1.1/DTD/svg11.dtd">
<svg version="1.1" id="Layer_1" xmlns="http://www.w3.org/2000/svg" xmlns:xlink="http://www.w3.org/1999/xlink" x="0px" y="0px"
	 width="1280px" height="720px" viewBox="0 0 1280 720" enable-background="new 0 0 1280 720" xml:space="preserve">
<circle id="Projeto.2_1_" fill="none" stroke="#000000" stroke-miterlimit="10" cx="3564.609" cy="336" r="18.638"/>
<circle id="Projeto.3_1_" fill="none" stroke="#000000" stroke-miterlimit="10" cx="3063.61" cy="146" r="24"/>
<circle id="Projeto.1_3_" fill="none" stroke="#000000" stroke-miterlimit="10" cx="2986.61" cy="506.5" r="16"/>
<circle id="Projeto.1_2_" fill="none" stroke="#000000" stroke-miterlimit="10" cx="3448.61" cy="506" r="16"/>
<line fill="none" stroke="#000000" stroke-width="3" stroke-miterlimit="10" x1="118.5" y1="328.5" x2="2883.61" y2="328.5"/>
<line fill="none" stroke="#000000" stroke-width="3" stroke-miterlimit="10" x1="2883.61" y1="328.5" x2="3065.86" y2="146.25"/>
<line fill="none" stroke="#000000" stroke-width="3" stroke-miterlimit="10" x1="2808.61" y1="328.5" x2="2986.36" y2="506.75"/>
<line fill="none" stroke="#000000" stroke-width="3" stroke-miterlimit="10" x1="2986.61" y1="506.5" x2="3448.61" y2="506.5"/>
<line fill="none" stroke="#000000" stroke-width="3" stroke-miterlimit="10" x1="3394.61" y1="506.5" x2="3564.86" y2="336.25"/>
<rect fill="none" stroke="#000000" stroke-width="3" stroke-miterlimit="10" width="1280" height="720"/>
<rect x="1280" fill="none" stroke="#000000" stroke-width="3" stroke-miterlimit="10" width="1280" height="720"/>
<rect x="2560" fill="none" stroke="#000000" stroke-width="3" stroke-miterlimit="10" width="1280" height="720"/>
<rect x="2560" y="-720" fill="none" stroke="#000000" stroke-width="3" stroke-miterlimit="10" width="1280" height="720"/>
<circle id="Cena.3" fill="#FF0000" cx="0" cy="0" r="33.509"/>
<circle id="Cena.2" fill="#FF0000" cx="2560" cy="0" r="33.509"/>
<circle id="Cena.3_1_" fill="#FF0000" cx="2560" cy="-720" r="33.509"/>
<circle id="Cena.1" fill="#FF0000" cx="1280" cy="0" r="33.509"/>
<line fill="none" stroke="#000000" stroke-width="3" stroke-miterlimit="10" x1="1596.416" y1="328.5" x2="2277.337" y2="-360"/>
<line fill="none" stroke="#000000" stroke-width="3" stroke-miterlimit="10" x1="2277.337" y1="-360" x2="3087.61" y2="-360"/>
<line fill="none" stroke="#000000" stroke-width="3" stroke-miterlimit="10" x1="1669.794" y1="255.122" x2="2000.235" y2="585.563"/>
<line fill="none" stroke="#000000" stroke-width="3" stroke-miterlimit="10" x1="2000.235" y1="585.563" x2="2241.48" y2="585.563"/>
<line fill="none" stroke="#000000" stroke-width="3" stroke-miterlimit="10" x1="2733.527" y1="-360" x2="3006.58" y2="-633.053"/>
<line fill="none" stroke="#000000" stroke-width="3" stroke-miterlimit="10" x1="2870.054" y1="-360" x2="2987.463" y2="-242.591"/>
<line fill="none" stroke="#000000" stroke-width="3" stroke-miterlimit="10" x1="2987.463" y1="-242.591" x2="3381.593" y2="-242.591"/>
<line fill="none" stroke="#000000" stroke-width="3" stroke-miterlimit="10" x1="3111.565" y1="-242.591" x2="3276.582" y2="-93.725"/>
<circle id="Projeto.3_2_" fill="none" stroke="#000000" stroke-miterlimit="10" cx="3276.582" cy="-93.725" r="24"/>
<circle id="Projeto.3_3_" fill="none" stroke="#000000" stroke-miterlimit="10" cx="3381.593" cy="-242.591" r="24"/>
<circle id="Projeto.3_4_" fill="none" stroke="#000000" stroke-miterlimit="10" cx="3087.61" cy="-360" r="24"/>
<circle id="Projeto.3_5_" fill="none" stroke="#000000" stroke-miterlimit="10" cx="3004.463" cy="-633.053" r="24"/>
</svg>
